<svg width="179" height="18" viewBox="0 0 179 18" fill="none" xmlns="http://www.w3.org/2000/svg">
<path d="M3.33625 17.2798C2.72825 17.2798 2.16825 17.1278 1.65625 16.8238C1.16025 16.5198 0.76025 16.1198 0.45625 15.6238C0.15225 15.1118 0.000250041 14.5518 0.000250041 13.9438V3.33578C0.000250041 2.72778 0.15225 2.17578 0.45625 1.67978C0.76025 1.16778 1.16025 0.759784 1.65625 0.455784C2.16825 0.151784 2.72825 -0.00021553 3.33625 -0.00021553H17.2323V3.19178H4.00825C3.75225 3.19178 3.54425 3.26378 3.38425 3.40778C3.24025 3.55178 3.16825 3.75978 3.16825 4.03178V13.2478C3.16825 13.5038 3.24025 13.7118 3.38425 13.8718C3.54425 14.0158 3.75225 14.0878 4.00825 14.0878H17.2323V17.2798H3.33625ZM23.0226 17.2798C22.4146 17.2798 21.8546 17.1278 21.3426 16.8238C20.8466 16.5198 20.4466 16.1198 20.1426 15.6238C19.8386 15.1118 19.6866 14.5518 19.6866 13.9438V3.33578C19.6866 2.72778 19.8386 2.17578 20.1426 1.67978C20.4466 1.16778 20.8466 0.759784 21.3426 0.455784C21.8546 0.151784 22.4146 -0.00021553 23.0226 -0.00021553H33.6306C34.2386 -0.00021553 34.7906 0.151784 35.2866 0.455784C35.7986 0.759784 36.2066 1.16778 36.5106 1.67978C36.8146 2.17578 36.9666 2.72778 36.9666 3.33578V13.9438C36.9666 14.5518 36.8146 15.1118 36.5106 15.6238C36.2066 16.1198 35.7986 16.5198 35.2866 16.8238C34.7906 17.1278 34.2386 17.2798 33.6306 17.2798H23.0226ZM23.1426 14.0878H33.4626C33.5426 14.0878 33.6146 14.0638 33.6786 14.0158C33.7426 13.9518 33.7746 13.8798 33.7746 13.7998V3.47978C33.7746 3.39978 33.7426 3.33578 33.6786 3.28779C33.6146 3.22378 33.5426 3.19178 33.4626 3.19178H23.1426C23.0626 3.19178 22.9906 3.22378 22.9266 3.28779C22.8786 3.33578 22.8546 3.39978 22.8546 3.47978V13.7998C22.8546 13.8798 22.8786 13.9518 22.9266 14.0158C22.9906 14.0638 23.0626 14.0878 23.1426 14.0878ZM39.6096 17.2798V-0.00021553H43.0896L53.6976 12.6238V-0.00021553H56.8896V17.2798H53.4096L42.7776 4.63178V17.2798H39.6096ZM65.7704 17.2798V3.19178H58.7144V-0.00021553H75.9944V3.19178H68.9624V17.2798H65.7704ZM76.4693 17.2798V16.4398L90.1253 -0.00021553H93.5573V17.2798H90.3893V12.8878H83.5253L79.8533 17.2798H76.4693ZM86.1653 9.74378H90.3893V4.79978L86.1653 9.74378ZM99.7113 17.2798C99.1033 17.2798 98.5433 17.1278 98.0312 16.8238C97.5353 16.5198 97.1353 16.1198 96.8313 15.6238C96.5273 15.1118 96.3753 14.5518 96.3753 13.9438V3.33578C96.3753 2.72778 96.5273 2.17578 96.8313 1.67978C97.1353 1.16778 97.5353 0.759784 98.0312 0.455784C98.5433 0.151784 99.1033 -0.00021553 99.7113 -0.00021553H113.607V3.19178H100.383C100.127 3.19178 99.9193 3.26378 99.7593 3.40778C99.6153 3.55178 99.5433 3.75978 99.5433 4.03178V13.2478C99.5433 13.5038 99.6153 13.7118 99.7593 13.8718C99.9193 14.0158 100.127 14.0878 100.383 14.0878H113.607V17.2798H99.7113ZM122.302 17.2798V3.19178H115.246V-0.00021553H132.526V3.19178H125.494V17.2798H122.302ZM144.945 17.2798C144.337 17.2798 143.777 17.1278 143.265 16.8238C142.769 16.5198 142.369 16.1198 142.065 15.6238C141.761 15.1118 141.609 14.5518 141.609 13.9438V-0.00021553H144.777V13.7998C144.777 13.8798 144.801 13.9518 144.849 14.0158C144.913 14.0638 144.985 14.0878 145.065 14.0878H155.385C155.465 14.0878 155.537 14.0638 155.601 14.0158C155.665 13.9518 155.697 13.8798 155.697 13.7998V-0.00021553H158.889V13.9438C158.889 14.5518 158.737 15.1118 158.433 15.6238C158.129 16.1198 157.721 16.5198 157.209 16.8238C156.713 17.1278 156.161 17.2798 155.553 17.2798H144.945ZM164.796 17.2798C164.188 17.2798 163.628 17.1278 163.116 16.8238C162.62 16.5198 162.22 16.1198 161.916 15.6238C161.612 15.1118 161.46 14.5518 161.46 13.9438V12.6238H164.628V13.7998C164.628 13.8798 164.652 13.9518 164.7 14.0158C164.764 14.0638 164.836 14.0878 164.916 14.0878H175.26C175.34 14.0878 175.404 14.0638 175.452 14.0158C175.516 13.9518 175.548 13.8798 175.548 13.7998V10.5118C175.548 10.4318 175.516 10.3678 175.452 10.3198C175.404 10.2718 175.34 10.2478 175.26 10.2478H164.796C164.188 10.2478 163.628 10.0958 163.116 9.79179C162.62 9.48778 162.22 9.08778 161.916 8.59178C161.612 8.07978 161.46 7.51178 161.46 6.88778V3.33578C161.46 2.72778 161.612 2.17578 161.916 1.67978C162.22 1.16778 162.62 0.759784 163.116 0.455784C163.628 0.151784 164.188 -0.00021553 164.796 -0.00021553H175.404C176.012 -0.00021553 176.564 0.151784 177.06 0.455784C177.572 0.759784 177.98 1.16778 178.284 1.67978C178.588 2.17578 178.74 2.72778 178.74 3.33578V4.65578H175.548V3.47978C175.548 3.39978 175.516 3.33578 175.452 3.28779C175.404 3.22378 175.34 3.19178 175.26 3.19178H164.916C164.836 3.19178 164.764 3.22378 164.7 3.28779C164.652 3.33578 164.628 3.39978 164.628 3.47978V6.76778C164.628 6.84778 164.652 6.91178 164.7 6.95978C164.764 7.00778 164.836 7.03178 164.916 7.03178H175.404C176.012 7.03178 176.564 7.18378 177.06 7.48778C177.572 7.79178 177.98 8.19978 178.284 8.71178C178.588 9.20778 178.74 9.76779 178.74 10.3918V13.9438C178.74 14.5518 178.588 15.1118 178.284 15.6238C177.98 16.1198 177.572 16.5198 177.06 16.8238C176.564 17.1278 176.012 17.2798 175.404 17.2798H164.796Z" fill="white"/>
</svg>
